<?xml version="1.0" encoding="utf-8"?><svg xml:space="preserve" viewBox="0 0 100 100" y="0" x="0" xmlns="http://www.w3.org/2000/svg" id="Layer_1" version="1.1" width="200px" height="200px" xmlns:xlink="http://www.w3.org/1999/xlink" style="width:100%;height:100%;background-color:rgb(255, 255, 255);animation-play-state:paused" ><g class="ldl-scale" style="transform-origin:50% 50% 0px;transform:rotate(0deg) scale(0.8);animation-play-state:paused" ><path fill="#cccccb" d="M48.409 21.465c-.858-.787-2.242-.178-2.242.986v19.155H22.983a1.872 1.872 0 0 0-1.872 1.872v13.043c0 1.034.838 1.872 1.872 1.872h23.184v19.155c0 1.164 1.384 1.773 2.242.986l30.046-27.548a1.334 1.334 0 0 0 0-1.972L48.409 21.465z" style="fill:rgb(204, 204, 203);animation-play-state:paused" ></path>
<path fill="#323232" d="M82.407 10H17.593A7.594 7.594 0 0 0 10 17.593v64.814C10 86.6 13.4 90 17.593 90h64.814C86.6 90 90 86.6 90 82.407V17.593C90 13.4 86.6 10 82.407 10zm-3.952 40.986L48.409 78.534c-.858.787-2.242.178-2.242-.986V58.393H22.983a1.872 1.872 0 0 1-1.872-1.872V43.479c0-1.034.838-1.872 1.872-1.872h23.184V22.452c0-1.164 1.384-1.773 2.242-.986l30.046 27.548a1.334 1.334 0 0 1 0 1.972z" style="fill:rgb(50, 50, 50);animation-play-state:paused" ></path>
<metadata xmlns:d="https://loading.io/stock/" style="animation-play-state:paused" ><d:name style="animation-play-state:paused" >right</d:name>


<d:tags style="animation-play-state:paused" >east,foward,redo,next,direction,way,turn,square,right,arrow</d:tags>


<d:license style="animation-play-state:paused" >by</d:license>


<d:slug style="animation-play-state:paused" >cem2ko</d:slug></metadata></g><!-- generated by https://loading.io/ --></svg>